<?xml version="1.0" encoding="utf-8"?>
<!-- Generator: Adobe Illustrator 22.0.1, SVG Export Plug-In . SVG Version: 6.00 Build 0)  -->
<svg version="1.1" id="Layer_1" xmlns="http://www.w3.org/2000/svg" xmlns:xlink="http://www.w3.org/1999/xlink" x="0px" y="0px"
	 viewBox="0 0 26 27" style="enable-background:new 0 0 26 27;" xml:space="preserve">
<path d="M23.3,9.7V4.8L18.2,10c1.5,1.9,2.3,4.2,2.3,6.5c-0.1,5.6-4.8,10.1-10.4,10S-0.1,21.7,0,16.1c0.1-5.6,4.7-10,10.2-10
	c2.1,0,4.2,0.7,5.9,1.9l5.2-5.2h-5.1V0H26v9.7H23.3z M2.8,16.6c0.1,4.1,3.5,7.3,7.6,7.2c4.1-0.1,7.3-3.5,7.2-7.6
	c-0.1-4-3.4-7.2-7.4-7.2C6.1,9,2.8,12.4,2.8,16.6L2.8,16.6z"/>
</svg>
