<svg xmlns="http://www.w3.org/2000/svg" width="26" height="23" viewBox="0 0 26 23">
  <metadata><?xpacket begin="﻿" id="W5M0MpCehiHzreSzNTczkc9d"?>
<x:xmpmeta xmlns:x="adobe:ns:meta/" x:xmptk="Adobe XMP Core 5.6-c142 79.160924, 2017/07/13-01:06:39        ">
   <rdf:RDF xmlns:rdf="http://www.w3.org/1999/02/22-rdf-syntax-ns#">
      <rdf:Description rdf:about=""/>
   </rdf:RDF>
</x:xmpmeta>
                                                                                                    
                                                                                                    
                                                                                                    
                                                                                                    
                                                                                                    
                                                                                                    
                                                                                                    
                                                                                                    
                                                                                                    
                                                                                                    
                                                                                                    
                                                                                                    
                                                                                                    
                                                                                                    
                                                                                                    
                                                                                                    
                                                                                                    
                                                                                                    
                                                                                                    
                                                                                                    
                           
<?xpacket end="w"?></metadata>
<defs>
    <style>
      .cls-1 {
        fill: #999;
        fill-rule: evenodd;
      }
    </style>
  </defs>
  <path id="Shape_166_copy" data-name="Shape 166 copy" class="cls-1" d="M1478.01,292.624h-3.08v-5.863a1.744,1.744,0,0,0-1.72-1.763h-10.29a1.744,1.744,0,0,0-1.72,1.763v5.863h-3.21a2.961,2.961,0,0,0-2.99,3.022c0.07,2.547.22,5.095,0.42,7.642a3.318,3.318,0,0,0,3.15,3.022h3.05l-0.36,1.69h13.43l-0.36-1.69h3.1a3.318,3.318,0,0,0,3.15-3.022c0.2-2.547.35-5.1,0.42-7.642A2.961,2.961,0,0,0,1478.01,292.624Zm-14.91-5.683h8.34l0.02,1.876h1.87v3.807H1463.1v-5.683Zm0,19.547,0.98-4.617h7.79l0.98,4.617h-9.75Zm0.21-6.129a2.217,2.217,0,0,1,1.57-.661H1471a2.176,2.176,0,0,1,1.56.661h-9.25Zm15.05,2.733a1.074,1.074,0,0,1-.93.951h-2.73v-2.078a3.744,3.744,0,0,0-3.7-3.778h-6.12a3.744,3.744,0,0,0-3.7,3.778v2.078h-2.61a1.064,1.064,0,0,1-.93-0.943c-0.21-2.508-.35-5.04-0.42-7.526a0.594,0.594,0,0,1,.17-0.435,0.829,0.829,0,0,1,.6-0.248h20.02a0.829,0.829,0,0,1,.6.248,0.6,0.6,0,0,1,.17.438C1478.71,298.06,1478.57,300.591,1478.36,303.092Zm-18.8-7.395a1.093,1.093,0,1,0,1.07,1.093A1.082,1.082,0,0,0,1459.56,295.7Zm5.4,7.853-0.25,1.259h6.85l-0.25-1.259h-6.35Z" transform="translate(-1455 -285)"/>
</svg>
