<?xml version="1.0" encoding="utf-8"?>
<!-- Generator: Adobe Illustrator 19.1.0, SVG Export Plug-In . SVG Version: 6.00 Build 0)  -->
<svg version="1.1" id="Layer_1" xmlns="http://www.w3.org/2000/svg" xmlns:xlink="http://www.w3.org/1999/xlink" x="0px" y="0px"
	 viewBox="0 0 50 50" style="enable-background:new 0 0 50 50;" xml:space="preserve">
<style type="text/css">
	.st0{fill:#53A4FF;enable-background:new    ;}
</style>
<path class="st0" d="M43.4,46H7.6c-2,0-3.6-1.6-3.6-3.6V10.6C4,8.6,5.6,7,7.6,7h5.8V4.3C13.4,3.6,14,3,14.7,3S16,3.6,16,4.3V7h8.1
	V4.3c0-0.7,0.6-1.3,1.3-1.3c0.7,0,1.3,0.6,1.3,1.3V7h8.1V4.3c0-0.7,0.6-1.3,1.3-1.3s1.3,0.6,1.3,1.3V7h5.8c2,0,3.6,1.6,3.6,3.6v31.8
	C47,44.4,45.4,46,43.4,46L43.4,46z M44.3,10.6c0-0.5-0.4-0.9-0.9-0.9h-5.8v2.7c0,0.7-0.6,1.3-1.3,1.3S35,13.1,35,12.4V9.7h-8.1v2.7
	c0,0.7-0.6,1.3-1.3,1.3c-0.7,0-1.3-0.6-1.3-1.3V9.7h-8.1v2.7c0,0.7-0.6,1.3-1.3,1.3s-1.3-0.6-1.3-1.3V9.7h-6c-0.5,0-0.9,0.4-0.9,0.9
	v31.8c0,0.5,0.4,0.9,0.9,0.9h35.8c0.5,0,0.9-0.4,0.9-0.9V10.6L44.3,10.6z M13.4,23.2v-4h5.4v4H13.4L13.4,23.2z M13.4,29.9v-4h5.4v4
	H13.4L13.4,29.9z M13.4,36.6v-4h5.4v4H13.4L13.4,36.6z M22.8,36.6v-4h5.4v4H22.8L22.8,36.6z M22.8,29.9v-4h5.4v4H22.8L22.8,29.9z
	 M22.8,23.2v-4h5.4v4H22.8L22.8,23.2z M32.2,36.6v-4h5.4v4H32.2L32.2,36.6z M32.2,29.9v-4h5.4v4H32.2L32.2,29.9z M32.2,23.2v-4h5.4
	v4H32.2L32.2,23.2z"/>
</svg>
