<svg xmlns="http://www.w3.org/2000/svg" width="164" height="133" viewBox="0 0 164 133">
  <metadata><?xpacket begin="﻿" id="W5M0MpCehiHzreSzNTczkc9d"?>
<x:xmpmeta xmlns:x="adobe:ns:meta/" x:xmptk="Adobe XMP Core 5.6-c142 79.160924, 2017/07/13-01:06:39        ">
   <rdf:RDF xmlns:rdf="http://www.w3.org/1999/02/22-rdf-syntax-ns#">
      <rdf:Description rdf:about=""/>
   </rdf:RDF>
</x:xmpmeta>
                                                                                                    
                                                                                                    
                                                                                                    
                                                                                                    
                                                                                                    
                                                                                                    
                                                                                                    
                                                                                                    
                                                                                                    
                                                                                                    
                                                                                                    
                                                                                                    
                                                                                                    
                                                                                                    
                                                                                                    
                                                                                                    
                                                                                                    
                                                                                                    
                                                                                                    
                                                                                                    
                           
<?xpacket end="w"?></metadata>
<defs>
    <style>
      .cls-1 {
        fill: #1c1c1c;
        fill-rule: evenodd;
      }
    </style>
  </defs>
  <path class="cls-1" d="M305.992,2687.06s0-.01.008-0.01-0.006.01-.009,0.01h-0.036v0.04a5.708,5.708,0,0,1-2.755.71H293.069c-4.469,0-4.469-1.63-4.469-2.61v-46.18h-8.044v46.18a11.525,11.525,0,0,0,.362,2.89,54.008,54.008,0,0,0-7.345-6.04v-42.23l-0.046-.3a2.446,2.446,0,0,1,.577-1.26c0.572-.67,2.537-2.22,8.407-2.22V2628c-6.766,0-11.646,1.69-14.507,5.01a10.2,10.2,0,0,0-2.476,7.29v24.34c-5.747-3.68-14.13-9.07-18.891-12.23-6.009-3.99-10.677-2.56-12.925-1.36a11.173,11.173,0,0,0-5.915,9.29v9.7c-1.234.06-2.46,0.15-3.672,0.26-0.543-4.57-2.551-7.2-8.793-10.93-0.544-.33-5.806-3.63-8.633-5.41-1.446-.91-2.538-1.59-2.717-1.7-2.847-1.77-7.317-2.66-10.885-.67a8.493,8.493,0,0,0-4.215,7.73v23.81q-1.809,1.335-3.464,2.78v-26.59a8.493,8.493,0,0,0-4.215-7.73c-3.568-1.99-8.038-1.1-10.885.67-0.179.11-1.271,0.79-2.717,1.7-2.827,1.78-8.089,5.08-8.633,5.41-7.731,4.62-8.968,7.55-8.968,14.58v21.44h8.044v-21.44c0-2.48.124-3.49,0.511-4.15,0.5-.87,1.906-1.96,4.542-3.53,0.572-.34,4.481-2.8,8.783-5.5,1.423-.89,2.5-1.57,2.672-1.68a3.462,3.462,0,0,1,2.723-.48,1.854,1.854,0,0,1,.1.71v27.6a8.674,8.674,0,0,0,1.838,5.46,36.966,36.966,0,0,0-8.449,23.09c0,25.14,27.413,45.53,61.227,45.53s61.228-20.39,61.228-45.53a36.317,36.317,0,0,0-6.812-20.89,15.938,15.938,0,0,0,6.663,1.28h10.136c5.2-.01,10.8-2.76,10.8-8.8h-8.008Zm-68.4-28.96c1.455-.72,3.3.15,4.6,1.01,6.259,4.16,18.673,12.09,23.342,15.07v3.19a75.968,75.968,0,0,0-29.687-7.35v-9.66A3.468,3.468,0,0,1,237.59,2658.1Zm-40.664,1.22a1.854,1.854,0,0,1,.1-0.71,3.46,3.46,0,0,1,2.722.48c0.176,0.11,1.25.79,2.673,1.68,4.3,2.7,8.211,5.16,8.783,5.5,2.636,1.57,4.037,2.66,4.542,3.53a3.913,3.913,0,0,1,.43,1.67,71.662,71.662,0,0,0-19.249,6.67v-18.82Zm-8.044,26.06v1.61l-0.041-.07,0.035,0.22c-0.035.21-.245,0.57-1.726,0.57a4.971,4.971,0,0,1-.987-0.08Q187.469,2686.475,188.882,2685.38Zm100.112,20.35,0.53-1.27a32.918,32.918,0,0,1,1.907,11.01c0,24.12-26.665,43.74-59.441,43.74-25.168,0-46.732-11.57-55.386-27.87,1.159,1.19,2.731,2.46,4.157,2.46h7.8a12.543,12.543,0,0,1-6.851-2.53l7.093-4.17c4.057,6.76,7.292,6.69,8.38,6.69H203a8.291,8.291,0,0,1-4.5-1.72l-0.314-7.39c0.883-1.63,1.666-3.12,1.816-3.5,0.139-.34.664-1.58,1.375-3.2l8.026,5.4c-0.8,1.68-4.94,9.35-8.577,9.58,0,0,4.431,1.69,6.492-.27a30.849,30.849,0,0,0,7.614-11.54,66.139,66.139,0,0,1,4.876-10.56c1.337,2.47,2.556,5.21,3.07,6.37,0.824,1.85,4.774,9.14,6.87,12.47a9.021,9.021,0,0,0,6.388,4.39c1.1,0,6.527-.18,6.527-0.18a10.671,10.671,0,0,1-6.747-2.72l8.173-4.55c0.634,1.05,1.422,2.23,2.2,3.27a14.031,14.031,0,0,1-5.3,3.44c0.824,0.09,1.626.41,3.3,0.62s1.558,0.18,4.053-1.24a3.25,3.25,0,0,0,.321-0.21,6.954,6.954,0,0,0,4.1,1.57c0.87-.03,5.908-0.18,5.908-0.18a8.056,8.056,0,0,1-4.462-1.42l-0.285-7.32c0.35-.65.577-1.11,0.625-1.21,0.152-.32,1.04-2.25,2.494-5.52l8.118,5.36c-1.2,2.31-2.31,4.15-3.147,5.52-1.443,2.36-5.313,3.94-5.313,3.94s-0.045.23,3.023,0.64,5.725-2.75,7.4-5.41a50.673,50.673,0,0,0,3.641-6.73c0.641-1.53,3.618-8.06,4.053-9.11a9.238,9.238,0,0,1,.837-1.45,29.94,29.94,0,0,1,2.151,4.48l2.061-5.28a12.564,12.564,0,0,0-1.817-2.96c1.563-2.56,5.63-3.93,5.63-3.93-4.4-.78-6.22-0.16-7.98,1.44a6.775,6.775,0,0,0-4.935-1.77l-5.084-.06c3.1,0.31,5.627,2.3,7.558,4.61-0.445.61-.885,1.29-1.322,2.03l-8.9-2.31a8.817,8.817,0,0,0,.925-1.21c0.618-1.12,3.939-2.47,3.939-2.47-4.923-1.29-6.16-.28-8.084,1.62s-4.992,7.7-5.542,9.07c-0.44,1.1-3.352,7.69-5.623,11.89a50.556,50.556,0,0,1-2.872-5.41c-0.687-1.34-3.595-8.59-6.939-13.23s-5.747-4.59-6.457-4.59h-6.8a8.907,8.907,0,0,1,4.281,1.16l-5.519,1.14a8.624,8.624,0,0,1,3.574-1.77s-4.415-1.65-8.05,1.05a6.108,6.108,0,0,0-4.007-1.55l-7.385-.03h0.029c-4.07-.02-7.6,6.62-8.925,9.37-1.373,2.85-6.464,13.78-6.471,13.79a66.265,66.265,0,0,1-6.41-13.38l-2.06,5.43a62.545,62.545,0,0,0,2.953,6.8l-7.888,4.58h0a17.128,17.128,0,0,1-3.071-4.86l-1.392,3.85a33.167,33.167,0,0,1-2.662-12.96,35.178,35.178,0,0,1,7.928-21.82,10.294,10.294,0,0,0,6.671,2.11,9.837,9.837,0,0,0,7.484-2.86,8.6,8.6,0,0,0,2.292-5.98v-6.76a69.8,69.8,0,0,1,19.326-6.88c0,0.21,0,.43,0,0.67v12.51a8.741,8.741,0,0,0,5.245,8.08,14.365,14.365,0,0,0,5.369,1.3v-8.06a4.784,4.784,0,0,1-2.419-.83,0.524,0.524,0,0,1-.151-0.49V2673.8h0q0-.9-0.038-1.71c1.168-.11,2.347-0.2,3.535-0.26v11.58c0,8.26,3.861,12.45,11.475,12.45H251c3.979,0,5.3,1.22,5.447,1.32v0.01h8.259a7.865,7.865,0,0,0-1.039-3.59c-0.337-.68-3.211-5.78-12.667-5.78H239.272c-2.5,0-3.431,0-3.431-4.41v-11.59a73.864,73.864,0,0,1,29.687,7.55v5.21a11.075,11.075,0,0,0,3.24,8.38,11.255,11.255,0,0,0,7.536,2.9h0.216v-8.07a4.069,4.069,0,0,1-2.208-.65,3.712,3.712,0,0,1-.739-2.56v-0.33c7.057,5.09,12.407,11.46,15.334,18.6h-6.748C285.181,2703.1,288.994,2705.73,288.994,2705.73Zm-93.458,23.57c0.072-.1.161-0.25,0.262-0.41l0.019,0.73C195.723,2729.52,195.63,2729.41,195.536,2729.3Zm19.458-17.52c-1.75,3.41-3.332,6.72-4.363,8.93l-8.078-5.38c0.819-1.82,1.72-3.77,2.527-5.41,0.1-.21.214-0.41,0.329-0.61ZM207,2707.21a18.127,18.127,0,0,1,5.158-3.73,10.314,10.314,0,0,1,5.217,3.31c0.056,0.07.114,0.15,0.17,0.22-0.08.13-.161,0.26-0.239,0.4-0.4.72-.793,1.46-1.186,2.21Zm21.5,11.76c-1.217-2.37-2.221-4.35-2.371-4.65a43.2,43.2,0,0,0-3.322-6.55l9.462-1.98a24.919,24.919,0,0,1,5.233,7.41Zm10.05-3.41c0.985,2.08,3.682,7.15,4.49,8.91a0.176,0.176,0,0,0,.009.02l-9.01,4.5c-0.331-.41-0.586-0.77-0.766-1.04-0.464-.7-2.059-3.73-3.626-6.76Zm12.572,13.92c0.172-.24.342-0.49,0.509-0.74l0.089,1.39C251.524,2729.92,251.324,2729.7,251.129,2729.48Zm6.965-13.7c0.228-.52.462-1.05,0.707-1.61a31.4,31.4,0,0,1,2.552-4.8l9.313,2.36c-0.934,1.81-1.861,3.85-2.8,6.05-0.533,1.26-1.069,2.43-1.6,3.52Zm-67.738,13.93s-2.221,2.75-4.831,3.35a26.748,26.748,0,0,0,3.755.74h0.687a4.547,4.547,0,0,0,2.885-1.5A26,26,0,0,1,190.356,2729.71Z" transform="translate(-150 -2628)"/>
</svg>
