<svg xmlns="http://www.w3.org/2000/svg" width="21" height="21" viewBox="0 0 21 21">
  <metadata><?xpacket begin="﻿" id="W5M0MpCehiHzreSzNTczkc9d"?>
<x:xmpmeta xmlns:x="adobe:ns:meta/" x:xmptk="Adobe XMP Core 5.6-c142 79.160924, 2017/07/13-01:06:39        ">
   <rdf:RDF xmlns:rdf="http://www.w3.org/1999/02/22-rdf-syntax-ns#">
      <rdf:Description rdf:about=""/>
   </rdf:RDF>
</x:xmpmeta>
                                                                                                    
                                                                                                    
                                                                                                    
                                                                                                    
                                                                                                    
                                                                                                    
                                                                                                    
                                                                                                    
                                                                                                    
                                                                                                    
                                                                                                    
                                                                                                    
                                                                                                    
                                                                                                    
                                                                                                    
                                                                                                    
                                                                                                    
                                                                                                    
                                                                                                    
                                                                                                    
                           
<?xpacket end="w"?></metadata>
<defs>
    <style>
      .cls-1 {
        fill: #fff;
        fill-rule: evenodd;
      }
    </style>
  </defs>
  <path class="cls-1" d="M413.5,544A10.5,10.5,0,1,0,424,554.5,10.5,10.5,0,0,0,413.5,544Zm0,19.68a9.18,9.18,0,1,1,9.179-9.18A9.19,9.19,0,0,1,413.5,563.679Zm0.149-16.452H413.62a1.224,1.224,0,0,0-1.224,1.224v6.361l-3.021,2.546a1.224,1.224,0,1,0,1.576,1.872l3.476-2.929a1.214,1.214,0,0,0,.433-0.89,1.238,1.238,0,0,0,.012-0.163v-6.8A1.223,1.223,0,0,0,413.649,547.227Zm1.852,12.039,0.634,1.524a6.852,6.852,0,0,0,2.228-1.493l-1.168-1.166A5.208,5.208,0,0,1,415.5,559.266Zm4.819-4.845c0,0.023,0,.046,0,0.07h0v-0.07Zm-1.651.015a5.172,5.172,0,0,1-.382,2l1.539,0.632a6.814,6.814,0,0,0,.493-2.576h-1.65v-0.055Zm1.174-2.657a6.86,6.86,0,0,0-1.5-2.224l-1.163,1.171a5.193,5.193,0,0,1,1.14,1.691Z" transform="translate(-403 -544)"/>
</svg>
