<svg xmlns="http://www.w3.org/2000/svg" viewBox="0 0 18 28.02"><defs><style>.cls-1{fill:#1c487b;}</style></defs><title>Asset 1</title><g id="Layer_2" data-name="Layer 2"><g id="Layer_1-2" data-name="Layer 1"><path class="cls-1" d="M13.49,6.33h.06A3.43,3.43,0,0,0,17,2.91V2.64A2.78,2.78,0,0,0,14.09,0a3.5,3.5,0,0,0-3.48,3.42v.35A2.72,2.72,0,0,0,13.49,6.33Z"/><path class="cls-1" d="M18,14c-1.1,3.31-8,11-7.77,9.86a10.54,10.54,0,0,1,.72-2.4L14,13.13c1.53-4.15-.42-5.26-2.24-5.26A9.36,9.36,0,0,0,5.4,10.74C5.11,11,2,14,0,21c0,0,6-9,7.9-10.31.28-.2,1.1-.69.43,1.15l-3,7.53c-.29.73-1.73,4.24-1.73,6.29,0,1.62,1,2.35,2.58,2.35,3.41,0,7.25-3.37,8.67-5.37h0A14.76,14.76,0,0,0,18,14Z"/></g></g></svg>